HIERARCHY
ROOT Hips
{
  OFFSET 2.59399e-05 120.011 0
  CHANNELS 6 Xposition Yposition Zposition Zrotation Xrotation Yrotation
  JOINT RightUpLeg
  {
    OFFSET -12.8929 0 0
    CHANNELS 3 Zrotation Xrotation Yrotation
    JOINT RightLeg
    {
      OFFSET 0 -60.3041 0
      CHANNELS 3 Zrotation Xrotation Yrotation
      JOINT RightFoot
      {
        OFFSET 0 -53.4221 0
        CHANNELS 3 Zrotation Xrotation Yrotation
        JOINT RightToeBase
        {
          OFFSET 0 -5.41187 17.795
          CHANNELS 3 Zrotation Xrotation Yrotation
          End Site
          {
            OFFSET 0 0 11.0798
          }
        }
      }
    }
  }
  JOINT LeftUpLeg
  {
    OFFSET 12.8929 0 0
    CHANNELS 3 Zrotation Xrotation Yrotation
    JOINT LeftLeg
    {
      OFFSET 0 -60.3041 0
      CHANNELS 3 Zrotation Xrotation Yrotation
      JOINT LeftFoot
      {
        OFFSET 0 -53.4221 0
        CHANNELS 3 Zrotation Xrotation Yrotation
        JOINT LeftToeBase
        {
          OFFSET 0 -5.41187 17.795
          CHANNELS 3 Zrotation Xrotation Yrotation
          End Site
          {
            OFFSET 0 0 11.0798
          }
        }
      }
    }
  }
  JOINT Spine
  {
    OFFSET 0 0.123189 0
    CHANNELS 3 Zrotation Xrotation Yrotation
    JOINT Spine1
    {
      OFFSET 0 41.8862 0
      CHANNELS 3 Zrotation Xrotation Yrotation
      JOINT RightShoulder
      {
        OFFSET 0 31.7409 0
        CHANNELS 3 Zrotation Xrotation Yrotation
        JOINT RightDummyShoulder
        {
          OFFSET 0 0 0
          CHANNELS 3 Zrotation Xrotation Yrotation
          JOINT RightArm
          {
            OFFSET -26.6195 -0.000158232 0
            CHANNELS 3 Zrotation Xrotation Yrotation
            JOINT RightForeArm
            {
              OFFSET -34.6831 -0.000156075 0
              CHANNELS 3 Zrotation Xrotation Yrotation
              JOINT RightHand
              {
                OFFSET -29.3377 -0.000116518 0
                CHANNELS 3 Zrotation Xrotation Yrotation
                End Site
                {
                  OFFSET -15.4188 0 0
                }
              }
            }
          }
        }
      }
      JOINT LeftShoulder
      {
        OFFSET 0 31.7409 0
        CHANNELS 3 Zrotation Xrotation Yrotation
        JOINT LeftDummyShoulder
        {
          OFFSET 0 0 0
          CHANNELS 3 Zrotation Xrotation Yrotation
          JOINT LeftArm
          {
            OFFSET 26.6195 -0.000158232 0
            CHANNELS 3 Zrotation Xrotation Yrotation
            JOINT LeftForeArm
            {
              OFFSET 34.6831 -0.000156075 0
              CHANNELS 3 Zrotation Xrotation Yrotation
              JOINT LeftHand
              {
                OFFSET 29.3377 -0.000116518 0
                CHANNELS 3 Zrotation Xrotation Yrotation
                End Site
                {
                  OFFSET 15.4188 0 0
                }
              }
            }
          }
        }
      }
      JOINT Neck
      {
        OFFSET 0 24.8104 0
        CHANNELS 3 Zrotation Xrotation Yrotation
        JOINT Head
        {
          OFFSET 0 21.3219 0
          CHANNELS 3 Zrotation Xrotation Yrotation
          End Site
          {
            OFFSET 0 17.7899 0
          }
        }
      }
    }
  }
}
MOTION
Frames:	9
Frame Time:	0.0333333
-68.7108 104.746 195.872 -9.82086 -2.49313 51.1491 -16.1336 4.46551 -44.4862 -17.5052 66.1286 13.5268 -37.8414 -14.8768 35.9933 5.93834 -3.61141 -33.5728 -11.9164 -32.6332 26.44 13.4304 59.8494 -5.93859 51.4883 -18.164 -17.5229 -5.41634 -10.5444 21.9258 6.24139 30.7615 12.018 -13.754 -24.3064 -12.0332 -14.7109 0.464567 -45.0748 -2.38542e-15 -1.59028e-15 -3.18055e-15 67.9096 37.465 12.0154 -15.199 1.97866 82.6336 -21.5051 13.4554 32.1142 -0.728672 13.8165 35.4162 7.95139e-16 3.47873e-16 -0 -49.298 52.7035 0.830457 -12.8262 -3.19703 -103.105 12.2471 10.4738 -12.3579 -7.02336 -17.534 -5.72798 0.444306 -2.35926 -8.57946 
-65.6682 105.127 199.605 -9.68214 -1.89698 55.0178 -20.1555 1.84073 -43.5248 -24.2375 70.809 17.9987 -46.3692 -18.2989 48.1512 10.113 2.94267 -31.1773 -12.8212 -30.0844 24.7782 12.887 60.5434 -4.95948 52.6075 -19.057 -18.1915 -4.82893 -11.5293 23.0887 5.42028 30.4489 12.8027 -14.188 -23.4049 -12.0108 -14.4973 0.772101 -46.1503 -5.1684e-15 0 1.59028e-15 67.6463 36.7219 10.5868 -16.2457 2.34375 82.0099 -22.2564 14.0425 32.7709 -2.41208 15.5468 35.7132 -1.59028e-15 1.68967e-15 7.95139e-16 -54.3427 46.6267 5.13376 -11.0123 -3.58516 -103.59 15.5281 13.0723 -11.5847 -7.2343 -17.6706 -6.09514 -0.545042 -3.20808 -8.6396 
-62.7515 105.093 202.858 -9.50194 -1.29209 59.1434 -22.6776 -2.48572 -41.653 -43.5692 74.9718 29.0785 -53.5948 -19.9247 49.3647 9.90168 6.26126 -34.3032 -13.7961 -27.7424 23.2025 13.6818 61.3753 -5.24255 53.2512 -20.4367 -19.0482 -4.34787 -12.3807 24.0943 4.45725 31.0964 13.0346 -14.1558 -23.1049 -11.7638 -13.7678 0.699453 -46.5723 -1.59028e-15 -3.18055e-15 -3.18055e-15 67.3766 34.8833 9.22269 -15.8611 3.45643 78.4596 -22.0159 13.9716 32.7473 -3.14526 16.2046 34.5413 -3.97569e-16 2.98177e-16 -1.59028e-15 -59.91 40.0731 6.29159 -9.36132 -3.13855 -102.786 16.5772 13.5244 -10.5602 -7.05843 -17.5147 -5.37339 -0.998138 -3.90449 -7.66085 
-59.9514 104.788 205.714 -9.80893 -0.552608 63.1262 -24.0127 -8.91661 -38.4962 -73.0248 76.4341 50.4711 -56.9738 -17.9832 41.8149 7.98426 6.53954 -35.9243 -14.5056 -25.834 21.2512 14.8825 61.863 -6.55266 52.6024 -22.5972 -20.0884 -4.10665 -13.3464 24.3077 3.53406 31.3688 12.6742 -14.2802 -23.0484 -11.3926 -13.0939 0.522388 -46.5764 8.82781e-32 -1.59028e-15 3.18055e-15 68.0028 33.312 7.60141 -15.0938 5.29396 72.24 -19.7973 13.123 31.0791 -2.81015 15.3474 32.8111 1.78906e-15 7.82715e-15 -0 -63.0459 37.0375 4.273 -8.88361 -2.27276 -101.382 16.6156 12.641 -10.2056 -6.63998 -17.0734 -3.74607 -0.427747 -3.98393 -6.19209 
-57.0933 104.435 208.447 -10.4386 0.0484774 66.7051 -24.4119 -16.9814 -35.7213 -96.5612 74.2473 69.3768 -55.3568 -10.7773 30.9675 6.17041 4.32074 -31.2191 -14.1797 -23.8543 19.9205 14.4661 62.1927 -6.92821 51.8348 -24.7834 -20.9319 -3.80952 -14.2965 24.2126 2.76449 31.3794 11.9758 -14.5481 -23.1917 -11.2319 -12.6034 0.404951 -46.0411 -3.97569e-15 1.59028e-15 -0 69.2702 32.6081 5.81189 -14.1369 7.43554 64.507 -16.0048 11.5895 27.9706 -1.54891 12.9731 31.0944 -1.09332e-15 -4.16205e-15 -3.18055e-15 -63.5363 38.2111 -0.438483 -8.74713 -1.36264 -99.7333 15.1077 10.4508 -9.74524 -6.1637 -16.4154 -2.24827 0.376262 -3.93452 -5.10333 
-53.506 104.017 211.275 -10.8795 0.415103 70.9026 -23.5842 -25.1379 -33.224 -106.428 70.4887 78.6183 -45.8331 -3.08705 18.0982 4.92451 1.78245 -23.9199 -13.5906 -20.7048 18.7717 13.6743 61.6636 -7.05232 50.9209 -27.1562 -21.7144 -3.32346 -15.4648 23.9431 2.92643 31.6204 10.2281 -15.2725 -23.6618 -11.7217 -12.2908 0.456079 -45.4591 1.59028e-15 -1.59028e-15 6.36111e-15 70.2676 33.4267 3.80136 -12.53 9.16898 57.3088 -12.7574 9.8667 26.5957 0.134405 9.93572 29.4397 1.59028e-15 -4.96962e-17 -3.18055e-15 -61.7139 41.3042 -6.84723 -7.57935 -0.696166 -99.1007 12.8564 7.62849 -10.5209 -5.76334 -15.7501 -1.04443 0.989811 -3.95966 -4.15403 
-49.9737 103.876 213.422 -11.2337 0.632964 74.7193 -23.8795 -33.6261 -32.9782 -106.866 67.9898 81.541 -38.4339 -2.76042 8.04526 3.79173 -1.37435 -17.1668 -13.1901 -17.1204 17.7986 13.4501 60.0848 -7.25916 49.6727 -29.8045 -21.9419 -3.19063 -15.4197 22.1333 3.22855 32.4634 8.39071 -15.396 -23.8127 -12.452 -11.534 0.890855 -44.2634 -2.64834e-31 -4.77083e-15 -3.18055e-15 70.8842 33.7921 2.12083 -11.3282 9.49632 54.4713 -10.0922 8.24951 25.5587 2.05711 6.96504 27.1081 3.97569e-16 1.09332e-15 -1.59028e-15 -61.9806 41.7744 -13.3252 -4.47911 -0.0226733 -99.775 10.6046 4.57252 -12.2671 -5.37802 -15.0437 -0.081221 1.10529 -5.7566 -3.16001 
-45.8531 103.898 215.77 -11.5263 0.683325 77.7281 -23.8253 -42.3936 -34.0589 -99.5114 66.1613 77.0467 -37.1942 -5.13961 6.20426 4.35484 -4.22029 -13.2292 -12.5945 -12.948 16.226 12.2462 56.9345 -7.12252 47.7813 -31.1689 -22.652 -2.99261 -16.5088 21.2555 4.18126 33.3631 7.72675 -16.6604 -23.6916 -14.5526 -11.4344 1.97574 -43.6752 1.76556e-31 3.18055e-15 -3.18055e-15 72.1608 34.8561 -0.0160117 -11.4917 9.47703 56.1126 -10.5403 8.43073 26.8406 4.53435 3.41428 25.0176 1.98785e-16 9.93923e-17 1.59028e-15 -57.8094 42.9963 -21.4896 -2.97114 1.29358 -103.464 9.52923 2.02 -12.2282 -5.13041 -14.4302 1.36063 1.76777 -7.44433 -1.52873 
-40.8189 104.556 218.004 -11.5697 0.691847 78.4972 -21.4442 -50.4082 -34.7476 -83.5893 63.3799 64.3308 -34.8489 -7.30158 7.35822 5.78282 -6.27416 -11.1644 -11.6286 -8.34247 15.5162 9.09507 52.8049 -5.19563 47.2192 -30.2649 -24.3614 -2.89075 -16.9875 21.5212 4.34914 33.5403 7.81886 -17.0406 -23.2372 -16.2321 -11.4646 2.92039 -43.229 -1.59028e-15 -3.18055e-15 -0 73.0478 35.4492 -1.27355 -11.1697 8.68528 60.4492 -11.6905 8.90412 28.5972 6.87068 1.07751 23.0362 3.97569e-16 -2.98177e-16 -0 -57.9412 39.5826 -25.7877 0.800306 3.27664 -108.422 7.38075 -0.965453 -13.2435 -4.9743 -14.0727 3.18782 2.61273 -8.3996 0.902068 
